<?xml version="1.0" encoding="UTF-8" standalone="no"?>
<!-- Created with Inkscape (http://www.inkscape.org/) -->

<svg
   xmlns:dc="http://purl.org/dc/elements/1.1/"
   xmlns:cc="http://creativecommons.org/ns#"
   xmlns:rdf="http://www.w3.org/1999/02/22-rdf-syntax-ns#"
   xmlns:svg="http://www.w3.org/2000/svg"
   xmlns="http://www.w3.org/2000/svg"
   xmlns:sodipodi="http://sodipodi.sourceforge.net/DTD/sodipodi-0.dtd"
   xmlns:inkscape="http://www.inkscape.org/namespaces/inkscape"
   width="227mm"
   height="177mm"
   viewBox="0 0 227 177"
   version="1.1"
   id="svg8"
   inkscape:version="0.92.3 (2405546, 2018-03-11)"
   sodipodi:docname="functional_example_sol2.svg">
  <defs
     id="defs2">
    <marker
       inkscape:isstock="true"
       style="overflow:visible"
       id="marker2810"
       refX="0"
       refY="0"
       orient="auto"
       inkscape:stockid="Arrow2Mend">
      <path
         transform="scale(-0.6)"
         d="M 8.7185878,4.0337352 -2.2072895,0.01601326 8.7185884,-4.0017078 c -1.7454984,2.3720609 -1.7354408,5.6174519 -6e-7,8.035443 z"
         style="fill:#000000;fill-opacity:1;fill-rule:evenodd;stroke:#000000;stroke-width:0.625;stroke-linejoin:round;stroke-opacity:1"
         id="path2808"
         inkscape:connector-curvature="0" />
    </marker>
    <marker
       inkscape:stockid="Arrow2Mend"
       orient="auto"
       refY="0"
       refX="0"
       id="Arrow2Mend"
       style="overflow:visible"
       inkscape:isstock="true"
       inkscape:collect="always">
      <path
         id="path2080"
         style="fill:#000000;fill-opacity:1;fill-rule:evenodd;stroke:#000000;stroke-width:0.625;stroke-linejoin:round;stroke-opacity:1"
         d="M 8.7185878,4.0337352 -2.2072895,0.01601326 8.7185884,-4.0017078 c -1.7454984,2.3720609 -1.7354408,5.6174519 -6e-7,8.035443 z"
         transform="scale(-0.6)"
         inkscape:connector-curvature="0" />
    </marker>
    <marker
       inkscape:stockid="Arrow2Mstart"
       orient="auto"
       refY="0"
       refX="0"
       id="Arrow2Mstart"
       style="overflow:visible"
       inkscape:isstock="true">
      <path
         id="path2077"
         style="fill:#000000;fill-opacity:1;fill-rule:evenodd;stroke:#000000;stroke-width:0.625;stroke-linejoin:round;stroke-opacity:1"
         d="M 8.7185878,4.0337352 -2.2072895,0.01601326 8.7185884,-4.0017078 c -1.7454984,2.3720609 -1.7354408,5.6174519 -6e-7,8.035443 z"
         transform="scale(0.6)"
         inkscape:connector-curvature="0" />
    </marker>
  </defs>
  <sodipodi:namedview
     id="base"
     pagecolor="#ffffff"
     bordercolor="#666666"
     borderopacity="1.0"
     inkscape:pageopacity="0.0"
     inkscape:pageshadow="2"
     inkscape:zoom="1.0885714"
     inkscape:cx="512.53924"
     inkscape:cy="356.29791"
     inkscape:document-units="mm"
     inkscape:current-layer="layer1"
     showgrid="false"
     inkscape:showpageshadow="false"
     borderlayer="true"
     width="296mm"
     inkscape:window-width="1920"
     inkscape:window-height="1056"
     inkscape:window-x="0"
     inkscape:window-y="0"
     inkscape:window-maximized="1" />
  <metadata
     id="metadata5">
    <rdf:RDF>
      <cc:Work
         rdf:about="">
        <dc:format>image/svg+xml</dc:format>
        <dc:type
           rdf:resource="http://purl.org/dc/dcmitype/StillImage" />
        <dc:title></dc:title>
      </cc:Work>
    </rdf:RDF>
  </metadata>
  <g
     inkscape:label="Layer 1"
     inkscape:groupmode="layer"
     id="layer1"
     transform="translate(0,-120)">
    <g
       id="g3856"
       transform="translate(-23.819444,14.097222)">
      <path
         sodipodi:nodetypes="ccc"
         inkscape:connector-curvature="0"
         id="path2051"
         d="m 30.381945,110.57639 v 166.25 H 247.20972"
         style="fill:none;stroke:#000000;stroke-width:1;stroke-linecap:round;stroke-linejoin:round;stroke-miterlimit:4;stroke-dasharray:none;stroke-opacity:1;marker-start:url(#Arrow2Mstart);marker-end:url(#Arrow2Mend)" />
      <path
         inkscape:connector-curvature="0"
         id="path2764"
         d="M 58.819442,126.13195 223.85416,250.81944"
         style="fill:none;stroke:#000000;stroke-width:1;stroke-linecap:round;stroke-linejoin:round;stroke-miterlimit:4;stroke-dasharray:none;stroke-opacity:1" />
      <path
         sodipodi:nodetypes="cc"
         inkscape:connector-curvature="0"
         id="path2766"
         d="M 30.381945,276.82639 113.09269,167.61259"
         style="fill:none;stroke:#000000;stroke-width:1;stroke-linecap:butt;stroke-linejoin:miter;stroke-miterlimit:4;stroke-dasharray:1, 1;stroke-dashoffset:0;stroke-opacity:1" />
      <path
         sodipodi:nodetypes="ccc"
         inkscape:connector-curvature="0"
         id="path2768"
         d="m 117.94791,171.00695 -3.4984,4.71515 -4.71515,-3.49841"
         style="fill:none;stroke:#000000;stroke-width:1;stroke-linecap:butt;stroke-linejoin:miter;stroke-miterlimit:4;stroke-dasharray:none;stroke-opacity:1" />
      <circle
         r="1.5"
         cy="167.28818"
         cx="113.36633"
         id="path2770"
         style="fill:#000000;fill-opacity:1;stroke:none;stroke-width:2.1465838;stroke-linecap:round;stroke-linejoin:round;stroke-miterlimit:4;stroke-dasharray:none;stroke-dashoffset:0;stroke-opacity:1" />
      <circle
         r="1.5"
         cy="138.04167"
         cx="74.496529"
         id="path2770-2"
         style="fill:#000000;fill-opacity:1;stroke:none;stroke-width:2.1465838;stroke-linecap:round;stroke-linejoin:round;stroke-miterlimit:4;stroke-dasharray:none;stroke-dashoffset:0;stroke-opacity:1" />
      <path
         sodipodi:nodetypes="cc"
         inkscape:connector-curvature="0"
         id="path2764-4"
         d="m 84.218752,139.01389 21.388888,16.40624"
         style="fill:none;stroke:#000000;stroke-width:1;stroke-linecap:round;stroke-linejoin:round;stroke-miterlimit:4;stroke-dasharray:none;stroke-opacity:1;marker-end:url(#marker2810)" />
      <path
         id="path3701"
         d="m 67.16272,139.19143 c -0.47625,0.0794 -0.814917,0.254 -1.169459,0.61912 -0.418042,0.42334 -0.777875,1.16946 -0.915459,1.89442 -0.01058,0.0741 -0.09525,0.48684 -0.185208,0.92604 -0.142875,0.71967 -0.201083,1.0213 -0.238125,1.24355 -0.01058,0.0635 -0.148167,0.0794 -0.793751,0.0847 -0.820209,0.005 -0.878417,0.0212 -0.9525,0.26459 -0.02117,0.0741 -0.0053,0.14816 0.04762,0.20108 0.07408,0.0688 0.216958,0.0847 0.830792,0.0847 h 0.740834 l -0.03704,0.24341 c -0.01587,0.1323 -0.04233,0.29634 -0.05821,0.35455 -0.03704,0.1905 -0.343959,1.79916 -0.370417,1.94204 -0.01058,0.0741 -0.05821,0.31221 -0.100542,0.52917 -0.09525,0.5027 -0.460375,2.41829 -0.66675,3.51896 -0.492126,2.61937 -0.740834,3.31258 -1.291168,3.58246 -0.232833,0.11641 -0.629709,0.0741 -0.92075,-0.10055 l -0.243417,-0.14287 0.227542,-0.0423 c 0.423333,-0.0741 0.682625,-0.34925 0.735542,-0.77788 0.03704,-0.32808 -0.07937,-0.56621 -0.343959,-0.67733 -0.582084,-0.24342 -1.243542,0.28575 -1.238251,0.98425 0.0053,0.48683 0.238126,0.81491 0.751418,1.05833 0.238125,0.11113 0.365125,0.13758 0.714375,0.13758 0.53975,0 0.762,-0.11112 1.280584,-0.64029 0.762001,-0.76729 1.270001,-2.13783 1.762126,-4.73075 0.08996,-0.48154 0.22225,-1.16417 0.296334,-1.524 0.06879,-0.35983 0.137583,-0.73025 0.153458,-0.82021 0.01588,-0.0952 0.100542,-0.55033 0.1905,-1.016 0.08467,-0.46567 0.201084,-1.07421 0.254,-1.34938 l 0.09525,-0.50271 0.963084,-0.0265 c 1.042459,-0.0265 1.063626,-0.037 1.063626,-0.32809 0,-0.0794 -0.02646,-0.15875 -0.05821,-0.17462 -0.03175,-0.0212 -0.460376,-0.037 -0.952501,-0.0423 -0.492125,0 -0.894292,-0.0159 -0.894292,-0.0318 0,-0.0318 0.07937,-0.45508 0.3175,-1.75154 0.05821,-0.30692 0.116417,-0.62971 0.132292,-0.71437 0.01587,-0.09 0.08996,-0.41275 0.164042,-0.71967 0.15875,-0.67733 0.322791,-0.95779 0.650875,-1.11654 0.211667,-0.10054 0.269875,-0.10584 0.566209,-0.0582 0.185208,0.0318 0.396875,0.10583 0.470958,0.16404 l 0.137584,0.11113 -0.206375,0.0529 c -0.481542,0.13229 -0.804334,0.64559 -0.677334,1.09009 0.100542,0.34395 0.497417,0.5027 0.904875,0.35983 0.396876,-0.13758 0.661459,-0.51858 0.661459,-0.96838 0,-0.79904 -0.836084,-1.35466 -1.799168,-1.19062 z"
         inkscape:connector-curvature="0"
         style="fill:#000000;stroke:none;stroke-width:0.00529167" />
      <path
         id="path3707"
         d="m 102.6948,132.22906 c -1.45521,0.42863 -2.809877,1.95792 -3.259667,3.68301 -0.15346,0.58737 -0.190504,1.52929 -0.0741,2.01083 0.12171,0.51858 0.41275,1.03188 0.756707,1.34938 0.48684,0.44979 0.91017,0.61383 1.56634,0.58737 0.59795,-0.0212 1.2065,-0.29633 1.73566,-0.78317 0.127,-0.11641 0.23284,-0.19579 0.23284,-0.16933 0,0.0265 -0.13229,0.56092 -0.29104,1.18533 -0.3228,1.28588 -0.51859,1.74096 -0.94721,2.19605 -0.58738,0.61912 -1.25942,0.85725 -2.24896,0.80433 -0.306917,-0.0212 -0.656167,-0.0635 -0.772587,-0.0952 -0.190497,-0.0529 -0.201081,-0.0635 -0.10054,-0.12171 0.23813,-0.13229 0.39688,-0.29633 0.49213,-0.508 0.301617,-0.67204 -0.33867,-1.2065 -1.005421,-0.84137 -0.545042,0.30162 -0.703792,1.06362 -0.301625,1.47108 0.211667,0.21696 0.439209,0.31221 0.968376,0.40746 0.41804,0.0741 1.545167,0.10583 1.852077,0.0476 0.89959,-0.16404 1.62455,-0.51858 2.15901,-1.04775 0.21695,-0.21166 0.45508,-0.48154 0.52916,-0.60325 0.13759,-0.21166 0.37042,-0.83608 0.42863,-1.12712 0.0106,-0.0741 0.43921,-1.80446 0.9525,-3.85234 0.51329,-2.04787 0.93133,-3.80471 0.93133,-3.90525 0,-0.27517 -0.1905,-0.4445 -0.508,-0.4445 -0.21696,0 -0.26987,0.0265 -0.44979,0.20637 -0.11642,0.11113 -0.20638,0.24871 -0.20638,0.30692 0,0.19579 -0.0635,0.16404 -0.30691,-0.15875 -0.508,-0.66146 -1.22767,-0.86254 -2.13254,-0.59796 z m 1.31233,0.39688 c 0.26987,0.13758 0.52917,0.42862 0.68262,0.77787 0.21696,0.49213 0.21696,0.51859 -0.16404,2.032 -0.19579,0.77259 -0.35983,1.44463 -0.37041,1.49755 -0.0794,0.37571 -0.26459,0.94721 -0.37571,1.13241 -0.17992,0.31221 -0.75142,0.86784 -1.11654,1.09009 -1.28588,0.77787 -2.21192,0.12171 -2.11667,-1.49754 0.0582,-0.97367 0.51329,-2.70934 0.92075,-3.51896 0.38629,-0.75671 1.06362,-1.41817 1.62454,-1.58751 0.29104,-0.09 0.66146,-0.0582 0.91546,0.0741 z"
         inkscape:connector-curvature="0"
         style="fill:#000000;stroke:none;stroke-width:0.00529167" />
      <g
         transform="translate(71.944444,86.770833)"
         id="g3738">
        <path
           style="fill:#000000;stroke:none;stroke-width:0.00529167"
           inkscape:connector-curvature="0"
           d="m 121.11402,115.44607 c -0.48684,0.17992 -0.89959,0.54504 -1.21179,1.06363 -0.127,0.20637 -0.37571,0.81491 -0.40746,0.97896 -0.0106,0.0582 -0.0582,0.2487 -0.10054,0.42333 -0.0476,0.17462 -0.12171,0.51858 -0.16405,0.76729 -0.0476,0.24871 -0.0953,0.508 -0.11112,0.58209 -0.10584,0.55033 -0.14288,0.72495 -0.16404,0.79904 -0.0212,0.0741 -0.127,0.0847 -0.79905,0.0847 -0.74083,-0.005 -0.77258,0 -0.86783,0.11642 -0.12171,0.14817 -0.127,0.23813 -0.0159,0.34396 0.0688,0.0688 0.22225,0.0847 0.8255,0.0847 h 0.74083 l -0.0318,0.21696 c -0.0159,0.1217 -0.09,0.52916 -0.16404,0.91016 -0.0741,0.381 -0.14817,0.77788 -0.16404,0.87842 -0.0159,0.10583 -0.037,0.22754 -0.0529,0.27517 -0.0106,0.0476 -0.0582,0.27516 -0.10054,0.50271 -0.11113,0.60325 -0.11642,0.6297 -0.34396,1.82033 -0.11642,0.59796 -0.30692,1.60867 -0.42333,2.24896 -0.12171,0.64029 -0.254,1.30704 -0.30163,1.48167 -0.0423,0.17462 -0.0847,0.35454 -0.0952,0.39687 -0.0794,0.34396 -0.33337,0.92075 -0.52387,1.18004 -0.28046,0.3863 -0.96309,0.42863 -1.35996,0.09 l -0.11642,-0.10583 h 0.14287 c 0.39688,0 0.75671,-0.34925 0.80963,-0.77788 0.0847,-0.72495 -0.69321,-1.016 -1.27,-0.48154 -0.37042,0.34925 -0.41275,1.0795 -0.0794,1.47109 0.28046,0.33866 0.87842,0.56091 1.36525,0.51329 0.8943,-0.0794 1.71451,-1.04775 2.24896,-2.65642 0.14288,-0.43392 0.47096,-1.70392 0.52917,-2.03729 0.0159,-0.10054 0.0423,-0.22225 0.0529,-0.26459 0.0265,-0.09 0.0635,-0.30162 0.11112,-0.58208 0.0159,-0.10054 0.0529,-0.28575 0.0794,-0.41275 0.0265,-0.12171 0.0635,-0.31221 0.0794,-0.42333 0.0159,-0.10584 0.0741,-0.42334 0.1323,-0.6985 0.0582,-0.27517 0.11641,-0.5768 0.127,-0.66146 0.0159,-0.09 0.0529,-0.28046 0.0794,-0.42334 0.0265,-0.14816 0.0635,-0.34396 0.0794,-0.43921 0.0159,-0.0952 0.0635,-0.33337 0.10054,-0.52916 0.0423,-0.19579 0.09,-0.43921 0.10583,-0.53975 0.0159,-0.10054 0.0635,-0.35454 0.10054,-0.55563 l 0.0688,-0.37042 0.96309,-0.0265 c 1.04775,-0.0265 1.06892,-0.037 1.06892,-0.32809 0,-0.0794 -0.0265,-0.15875 -0.0582,-0.17991 -0.0318,-0.0159 -0.46038,-0.037 -0.9578,-0.037 l -0.89429,-0.005 0.0318,-0.18521 c 0.0212,-0.10583 0.0476,-0.2487 0.0529,-0.32279 0.0106,-0.0741 0.0582,-0.32279 0.10583,-0.55562 0.0423,-0.23284 0.0952,-0.508 0.11113,-0.60854 0.0635,-0.3863 0.33866,-1.67746 0.41275,-1.92088 0.15875,-0.53446 0.43921,-0.78317 0.90487,-0.80963 0.20638,-0.0106 0.34396,0.0159 0.56092,0.11642 l 0.28575,0.13229 -0.28575,0.11642 c -0.39158,0.15875 -0.59796,0.41804 -0.62971,0.79904 -0.0318,0.41804 0.13758,0.61913 0.5715,0.68263 0.17463,0.0264 0.51859,-0.0953 0.68263,-0.24342 0.28575,-0.26458 0.39687,-0.78846 0.254,-1.19063 -0.09,-0.23812 -0.32279,-0.46566 -0.64029,-0.6297 -0.37042,-0.19051 -1.03717,-0.22755 -1.44992,-0.0741 z"
           id="path3703" />
        <path
           style="fill:#000000;stroke:none;stroke-width:0.00529167"
           inkscape:connector-curvature="0"
           d="m 134.76653,117.45161 c -0.23813,0.037 -0.24342,0.0952 -0.24871,2.81517 -0.005,1.41288 -0.0212,2.59821 -0.0423,2.62996 -0.0265,0.0423 -0.73554,0.0582 -2.42887,0.0582 -2.9845,0 -2.76225,-0.005 -2.89984,0.10583 -0.14287,0.11642 -0.15875,0.35455 -0.0318,0.47626 0.0794,0.0794 0.35984,0.0952 2.74109,0.11641 l 2.65642,0.0265 0.005,2.62467 c 0,2.50825 0.005,2.63525 0.10054,2.74108 0.127,0.14288 0.35983,0.14288 0.48683,0 0.0952,-0.10583 0.10055,-0.23812 0.11113,-2.66171 0.005,-1.397 0.0106,-2.58762 0.0106,-2.64054 0.005,-0.0847 0.16404,-0.09 2.58763,-0.09 2.86808,0 2.83104,0.005 2.8575,-0.32808 0.0159,-0.15875 -0.005,-0.21167 -0.12171,-0.28575 -0.127,-0.0847 -0.37571,-0.09 -2.73579,-0.0952 l -2.59821,-0.005 v -2.56646 c 0.005,-2.69346 -0.0106,-2.86809 -0.22754,-2.91571 -0.0582,-0.0159 -0.15346,-0.0159 -0.22225,-0.005 z"
           id="path3705" />
        <path
           style="fill:#000000;stroke:none;stroke-width:0.00529167"
           inkscape:connector-curvature="0"
           d="m 149.78429,120.07628 c -2.49767,0.73025 -4.21747,4.34976 -3.13796,6.58813 0.17991,0.36513 0.6985,0.89429 1.03187,1.05304 1.00542,0.46567 1.97379,0.20109 2.96863,-0.79904 0.17991,-0.18521 0.30162,-0.27516 0.30162,-0.22754 0,0.15875 0.22755,0.56621 0.42334,0.76729 0.27516,0.27517 0.62441,0.43392 1.03187,0.47096 0.29104,0.0212 0.381,0.005 0.62442,-0.11112 0.33337,-0.16405 0.4445,-0.27517 0.69321,-0.68792 0.30162,-0.508 0.73025,-2.03729 0.57679,-2.05317 -0.0265,0 -0.0794,-0.0106 -0.127,-0.0212 -0.14287,-0.0264 -0.20637,0.0476 -0.28575,0.3228 -0.037,0.14287 -0.12171,0.4445 -0.18521,0.66675 -0.15875,0.55033 -0.46037,1.13771 -0.68792,1.31762 -0.32808,0.26459 -0.762,0.22225 -0.89429,-0.0952 -0.15875,-0.381 -0.10054,-0.90487 0.23813,-2.21192 0.0741,-0.29104 0.14816,-0.58737 0.15875,-0.66145 0.0159,-0.0741 0.21696,-0.87842 0.4445,-1.7833 0.23283,-0.91016 0.42333,-1.74625 0.42333,-1.85737 0,-0.22755 -0.10583,-0.35984 -0.34925,-0.42863 -0.32279,-0.09 -0.71437,0.15875 -0.8255,0.53446 l -0.0582,0.19579 -0.15875,-0.24871 c -0.47625,-0.762 -1.24354,-1.016 -2.20662,-0.73025 z m 1.28058,0.381 c 0.37042,0.1905 0.64029,0.5715 0.80433,1.143 l 0.09,0.29634 -0.30162,1.18004 c -0.15875,0.65088 -0.30163,1.22767 -0.31221,1.27529 -0.11113,0.55034 -0.42863,1.59279 -0.53446,1.75155 -0.0688,0.10583 -0.31221,0.38629 -0.53975,0.60854 -0.44979,0.46037 -1.01071,0.78316 -1.42875,0.8255 -0.97367,0.10054 -1.46579,-0.87313 -1.20121,-2.40242 0.11112,-0.65088 0.12171,-0.70908 0.29633,-1.36525 0.47625,-1.79388 0.93663,-2.58763 1.82034,-3.15913 0.43921,-0.28575 0.93662,-0.34396 1.30704,-0.15346 z"
           id="path3709" />
        <path
           style="fill:#000000;stroke:none;stroke-width:0.00529167"
           inkscape:connector-curvature="0"
           d="m 159.6215,120.07099 c -0.54504,0.16404 -1.13242,0.51329 -1.59808,0.94192 -0.85196,0.78317 -1.38642,1.69333 -1.70921,2.90513 -0.127,0.47625 -0.127,1.49225 0,1.95791 0.23812,0.87842 0.77787,1.48167 1.56633,1.74625 0.76729,0.2593 1.73038,-0.0106 2.46063,-0.6985 0.11641,-0.10583 0.21696,-0.1852 0.22754,-0.17991 0.005,0.0106 -0.11642,0.55033 -0.28046,1.20121 -0.34396,1.37054 -0.508,1.73037 -1.01071,2.24366 -0.36512,0.37571 -0.83608,0.62971 -1.31762,0.71967 -0.4445,0.0847 -1.67217,0.005 -1.79917,-0.11642 -0.0265,-0.0317 -0.0159,-0.0476 0.0265,-0.0476 0.127,0 0.51329,-0.4445 0.5715,-0.65088 0.17462,-0.61912 -0.41804,-1.04775 -1.02659,-0.73554 -0.254,0.127 -0.36512,0.24871 -0.47096,0.50271 -0.11112,0.26458 -0.10054,0.54504 0.0318,0.81492 0.22755,0.47096 1.03717,0.68791 2.36538,0.635 0.80433,-0.0317 1.16417,-0.10584 1.74096,-0.381 0.86783,-0.40746 1.53988,-1.10596 1.778,-1.85209 0.0741,-0.22225 0.32279,-1.18004 0.381,-1.45521 0.0106,-0.0423 0.38629,-1.56104 0.84138,-3.37079 0.45508,-1.81504 0.8255,-3.38138 0.8255,-3.48192 0,-0.4445 -0.55034,-0.61383 -0.92075,-0.29104 -0.10054,0.09 -0.21167,0.24871 -0.24342,0.34925 l -0.0635,0.1905 -0.14287,-0.21696 c -0.49213,-0.74083 -1.31234,-1.01071 -2.23309,-0.73025 z m 1.31763,0.40217 c 0.37041,0.1905 0.73554,0.73025 0.83079,1.22767 0.0423,0.22754 -0.80963,3.69358 -1.00542,4.09575 -0.0688,0.14287 -0.254,0.39687 -0.40746,0.56092 -1.143,1.21179 -2.36008,1.29645 -2.76754,0.20108 -0.15346,-0.40746 -0.14288,-1.30704 0.0212,-2.05846 0.0688,-0.30692 0.13229,-0.60325 0.14287,-0.66146 0.0582,-0.29104 0.42333,-1.37054 0.57679,-1.70392 0.62971,-1.36525 1.76742,-2.09021 2.6088,-1.66158 z"
           id="path3711" />
      </g>
      <g
         style="fill:#000000;stroke:none"
         transform="matrix(0.00529167,0,0,-0.00529167,78.311329,237.01545)"
         id="g3810">
        <path
           inkscape:connector-curvature="0"
           d="m 2650,3312 c -52,-24 -256,-234 -332,-342 -80,-112 -182,-307 -231,-440 -39,-104 -93,-299 -102,-370 -3,-25 -8,-53 -11,-63 -20,-66 -32,-273 -29,-472 5,-261 2,-222 26,-370 23,-144 23,-147 49,-249 91,-351 259,-650 501,-886 102,-100 149,-131 173,-111 24,20 20,32 -32,86 -73,77 -143,164 -195,242 -51,76 -157,283 -157,306 0,7 -4,17 -9,23 -18,19 -83,239 -107,359 -23,117 -26,137 -50,315 -17,128 -10,579 10,728 3,20 8,60 12,87 10,89 55,277 94,396 85,260 218,485 399,678 53,55 60,71 38,89 -9,8 -22,6 -47,-6 z"
           id="path3800" />
        <path
           inkscape:connector-curvature="0"
           d="m 6387,3313 c -16,-16 -2,-38 79,-125 199,-215 341,-501 418,-843 28,-124 33,-156 42,-235 3,-30 7,-61 9,-68 8,-24 19,-249 19,-382 0,-132 -12,-378 -18,-389 -2,-3 -6,-28 -10,-56 -3,-27 -8,-59 -10,-70 -2,-11 -7,-40 -11,-65 C 6878,905 6799,667 6710,493 6635,348 6554,233 6426,95 c -25,-27 -46,-58 -46,-68 0,-67 124,14 265,174 79,89 91,105 154,199 184,276 302,625 338,1006 14,145 5,595 -12,624 -2,3 -6,28 -9,55 -4,28 -11,68 -16,90 -5,22 -11,52 -14,67 -11,61 -70,255 -102,336 -104,258 -295,531 -477,682 -66,55 -103,71 -120,53 z"
           id="path3802" />
        <path
           inkscape:connector-curvature="0"
           d="m 5291,3104 c -23,-16 -23,-20 -17,-113 3,-53 8,-105 10,-116 2,-11 7,-60 11,-108 l 7,-88 -176,117 c -184,122 -200,128 -240,88 -22,-21 -20,-77 3,-98 10,-9 98,-50 195,-90 98,-41 174,-76 169,-79 -6,-4 -83,-38 -173,-76 -89,-39 -173,-77 -186,-86 -48,-31 -18,-125 40,-125 12,0 99,52 195,116 l 173,116 -6,-59 c -18,-178 -29,-301 -27,-323 2,-54 77,-79 120,-39 21,19 22,27 17,95 -3,41 -8,85 -10,97 -3,12 -8,60 -11,107 -3,47 -8,93 -12,104 -6,23 -19,30 185,-106 89,-59 171,-108 183,-108 28,0 69,44 69,73 0,14 -8,34 -17,45 -10,11 -98,53 -195,93 -98,40 -175,76 -170,80 4,4 86,41 182,83 96,42 181,84 188,93 28,38 2,96 -48,108 -20,5 -59,-17 -199,-109 -96,-64 -176,-115 -177,-113 -1,1 2,31 6,67 8,67 15,133 26,255 5,63 4,72 -15,93 -26,26 -67,29 -100,6 z"
           id="path3804" />
        <path
           inkscape:connector-curvature="0"
           d="m 567,3078 c -20,-15 -29,-49 -17,-68 5,-9 41,-14 116,-16 201,-7 215,-17 188,-134 -3,-14 -7,-32 -9,-40 -2,-8 -15,-62 -30,-120 -15,-58 -29,-113 -31,-123 -2,-10 -6,-27 -9,-37 -3,-10 -8,-27 -10,-37 -2,-10 -33,-137 -70,-283 -37,-146 -68,-272 -70,-280 -2,-8 -15,-61 -29,-116 -15,-56 -28,-110 -30,-120 -2,-11 -21,-84 -41,-164 -20,-80 -38,-152 -40,-161 -2,-9 -24,-96 -49,-195 C 404,1063 383,998 368,983 332,944 271,932 114,931 36,930 12,918 5,878 1,858 5,848 19,840 c 13,-6 181,-10 484,-10 506,0 487,-2 494,56 5,33 -20,42 -125,45 -164,3 -205,20 -197,78 2,14 11,55 20,91 9,36 18,74 20,86 3,11 16,65 30,120 15,54 28,106 30,114 13,54 71,287 195,780 78,311 143,572 145,580 7,38 39,136 48,151 27,43 83,57 254,63 55,2 99,8 108,16 18,15 20,51 3,68 -18,18 -937,17 -961,0 z"
           id="path3806" />
        <path
           inkscape:connector-curvature="0"
           d="m 3759,2296 c -3,-3 -19,-7 -37,-11 -157,-27 -375,-191 -495,-372 -129,-195 -190,-382 -190,-588 -1,-186 44,-308 153,-415 186,-183 443,-154 663,74 26,27 49,47 50,45 2,-2 10,-20 17,-39 50,-130 180,-212 312,-197 142,17 224,130 297,412 26,98 26,122 2,130 -31,10 -50,-5 -61,-49 -6,-22 -26,-90 -45,-150 -57,-177 -114,-257 -194,-270 -104,-15 -140,92 -98,289 11,50 68,286 128,525 60,238 109,450 109,470 0,43 -23,68 -73,80 -62,14 -137,-40 -152,-110 l -7,-30 -40,60 c -66,99 -160,150 -278,150 -31,0 -59,-2 -61,-4 z m 186,-99 c 50,-28 97,-90 125,-164 27,-72 30,-103 14,-168 -42,-178 -177,-691 -185,-708 -17,-30 -57,-76 -132,-150 -94,-91 -191,-139 -280,-140 -55,-1 -71,3 -105,26 -45,32 -84,98 -102,175 -12,51 -9,203 4,262 3,14 9,41 12,60 13,76 65,273 98,367 44,130 75,192 141,278 127,167 286,229 410,162 z"
           id="path3808" />
      </g>
    </g>
  </g>
</svg>
