<?xml version="1.0" encoding="UTF-8" standalone="no"?>
<!-- Created with Inkscape (http://www.inkscape.org/) -->

<svg
   xmlns:dc="http://purl.org/dc/elements/1.1/"
   xmlns:cc="http://creativecommons.org/ns#"
   xmlns:rdf="http://www.w3.org/1999/02/22-rdf-syntax-ns#"
   xmlns:svg="http://www.w3.org/2000/svg"
   xmlns="http://www.w3.org/2000/svg"
   xmlns:sodipodi="http://sodipodi.sourceforge.net/DTD/sodipodi-0.dtd"
   xmlns:inkscape="http://www.inkscape.org/namespaces/inkscape"
   width="160mm"
   height="60mm"
   viewBox="0 0 160 60"
   version="1.1"
   id="svg8"
   inkscape:version="0.92.3 (2405546, 2018-03-11)"
   sodipodi:docname="kernel_method_and_feature_extraction.svg">
  <defs
     id="defs2">
    <marker
       inkscape:stockid="Arrow2Mend"
       orient="auto"
       refY="0"
       refX="0"
       id="Arrow2Mend"
       style="overflow:visible"
       inkscape:isstock="true">
      <path
         id="path867"
         style="fill:#000000;fill-opacity:1;fill-rule:evenodd;stroke:#000000;stroke-width:0.625;stroke-linejoin:round;stroke-opacity:1"
         d="M 8.7185878,4.0337352 -2.2072895,0.01601326 8.7185884,-4.0017078 c -1.7454984,2.3720609 -1.7354408,5.6174519 -6e-7,8.035443 z"
         transform="scale(-0.6)"
         inkscape:connector-curvature="0" />
    </marker>
    <marker
       inkscape:stockid="Arrow2Mend"
       orient="auto"
       refY="0"
       refX="0"
       id="Arrow2Mend-0"
       style="overflow:visible"
       inkscape:isstock="true">
      <path
         inkscape:connector-curvature="0"
         id="path867-0"
         style="fill:#000000;fill-opacity:1;fill-rule:evenodd;stroke:#000000;stroke-width:0.625;stroke-linejoin:round;stroke-opacity:1"
         d="M 8.7185878,4.0337352 -2.2072895,0.01601326 8.7185884,-4.0017078 c -1.7454984,2.3720609 -1.7354408,5.6174519 -6e-7,8.035443 z"
         transform="scale(-0.6)" />
    </marker>
  </defs>
  <sodipodi:namedview
     id="base"
     pagecolor="#ffffff"
     bordercolor="#666666"
     borderopacity="1.0"
     inkscape:pageopacity="0.0"
     inkscape:pageshadow="2"
     inkscape:zoom="2.9203385"
     inkscape:cx="302.01978"
     inkscape:cy="72.2947"
     inkscape:document-units="mm"
     inkscape:current-layer="layer1"
     showgrid="false"
     fit-margin-top="0"
     fit-margin-left="0"
     fit-margin-right="0"
     fit-margin-bottom="0"
     inkscape:showpageshadow="false"
     borderlayer="true"
     inkscape:window-width="2560"
     inkscape:window-height="1329"
     inkscape:window-x="0"
     inkscape:window-y="55"
     inkscape:window-maximized="1" />
  <metadata
     id="metadata5">
    <rdf:RDF>
      <cc:Work
         rdf:about="">
        <dc:format>image/svg+xml</dc:format>
        <dc:type
           rdf:resource="http://purl.org/dc/dcmitype/StillImage" />
        <dc:title></dc:title>
      </cc:Work>
    </rdf:RDF>
  </metadata>
  <g
     inkscape:label="Layer 1"
     inkscape:groupmode="layer"
     id="layer1"
     transform="translate(-43.489698,-128.40542)">
    <g
       id="g4319">
      <path
         d="M 78.892237,134.20935 A 22.896664,28.449961 0 0 1 89.24181,166.2088 22.896664,28.449961 0 0 1 67.157033,187.09708 22.896664,28.449961 0 0 1 45.089412,166.18082 22.896664,28.449961 0 0 1 55.465244,134.1945"
         sodipodi:open="true"
         sodipodi:end="4.1758751"
         sodipodi:start="5.2499227"
         sodipodi:ry="28.449961"
         sodipodi:rx="22.896664"
         sodipodi:cy="158.64713"
         sodipodi:cx="67.168709"
         sodipodi:type="arc"
         id="path815"
         style="fill:none;fill-opacity:1;stroke:#000000;stroke-width:0.5;stroke-linecap:round;stroke-linejoin:round;stroke-miterlimit:4;stroke-dasharray:none;stroke-opacity:1" />
      <path
         d="m 70.214613,151.30755 a 27.593794,18.183834 0 0 1 22.125959,-7.60882 27.593794,18.183834 0 0 1 22.390198,7.26539"
         sodipodi:open="true"
         sodipodi:end="5.6392102"
         sodipodi:start="3.7621549"
         sodipodi:ry="18.183834"
         sodipodi:rx="27.593794"
         sodipodi:cy="161.88132"
         sodipodi:cx="92.663589"
         sodipodi:type="arc"
         id="path838"
         style="fill:none;fill-opacity:1;stroke:#000000;stroke-width:0.58815295;stroke-linecap:round;stroke-linejoin:round;stroke-miterlimit:4;stroke-dasharray:none;stroke-opacity:1;marker-end:url(#Arrow2Mend)" />
      <text
         id="text2480"
         y="135.15242"
         x="58.82058"
         style="font-style:normal;font-variant:normal;font-weight:normal;font-stretch:normal;font-size:5.64444447px;line-height:1.25;font-family:'Noto Sans CJK JP';-inkscape-font-specification:'Noto Sans CJK JP, Normal';font-variant-ligatures:normal;font-variant-caps:normal;font-variant-numeric:normal;font-feature-settings:normal;text-align:start;letter-spacing:0px;word-spacing:0px;writing-mode:lr-tb;text-anchor:start;fill:#000000;fill-opacity:1;stroke:none;stroke-width:0.26458332"
         xml:space="preserve"><tspan
           style="font-style:normal;font-variant:normal;font-weight:normal;font-stretch:normal;font-size:5.64444447px;font-family:'Noto Sans CJK JP';-inkscape-font-specification:'Noto Sans CJK JP, Normal';font-variant-ligatures:normal;font-variant-caps:normal;font-variant-numeric:normal;font-feature-settings:normal;text-align:start;writing-mode:lr-tb;text-anchor:start;stroke-width:0.26458332"
           y="135.15242"
           x="58.82058"
           id="tspan2478"
           sodipodi:role="line">データ</tspan></text>
      <path
         d="m 135.1941,133.835 a 22.896664,28.449961 0 0 1 10.34957,31.99946 22.896664,28.449961 0 0 1 -22.08477,20.88828 22.896664,28.449961 0 0 1 -22.06762,-20.91626 22.896664,28.449961 0 0 1 10.37583,-31.98632"
         sodipodi:open="true"
         sodipodi:end="4.1758751"
         sodipodi:start="5.2499227"
         sodipodi:ry="28.449961"
         sodipodi:rx="22.896664"
         sodipodi:cy="158.27278"
         sodipodi:cx="123.47057"
         sodipodi:type="arc"
         id="path815-5"
         style="fill:none;fill-opacity:1;stroke:#000000;stroke-width:0.5;stroke-linecap:round;stroke-linejoin:round;stroke-miterlimit:4;stroke-dasharray:none;stroke-opacity:1" />
      <text
         id="text2480-0"
         y="135.62608"
         x="115.04906"
         style="font-style:normal;font-variant:normal;font-weight:normal;font-stretch:normal;font-size:5.64444447px;line-height:1.25;font-family:'Noto Sans CJK JP';-inkscape-font-specification:'Noto Sans CJK JP, Normal';font-variant-ligatures:normal;font-variant-caps:normal;font-variant-numeric:normal;font-feature-settings:normal;text-align:start;letter-spacing:0px;word-spacing:0px;writing-mode:lr-tb;text-anchor:start;fill:#000000;fill-opacity:1;stroke:none;stroke-width:0.26458332"
         xml:space="preserve"><tspan
           y="135.62608"
           x="115.04906"
           id="tspan2515"
           sodipodi:role="line">特徴量</tspan></text>
      <path
         d="m 193.45768,134.60943 a 22.896664,28.449961 0 0 1 8.04717,31.76559 22.896664,28.449961 0 0 1 -21.73033,19.49337 22.896664,28.449961 0 0 1 -21.73317,-19.48846 22.896664,28.449961 0 0 1 8.04253,-31.76741"
         sodipodi:open="true"
         sodipodi:end="4.071584"
         sodipodi:start="5.3530124"
         sodipodi:ry="28.449961"
         sodipodi:rx="22.896664"
         sodipodi:cy="157.41843"
         sodipodi:cx="179.77245"
         sodipodi:type="arc"
         id="path815-5-1"
         style="fill:none;fill-opacity:1;stroke:#000000;stroke-width:0.5;stroke-linecap:round;stroke-linejoin:round;stroke-miterlimit:4;stroke-dasharray:none;stroke-opacity:1" />
      <text
         id="text2480-0-1"
         y="134.31252"
         x="168.30011"
         style="font-style:normal;font-variant:normal;font-weight:normal;font-stretch:normal;font-size:5.64444447px;line-height:1.25;font-family:'Noto Sans CJK JP';-inkscape-font-specification:'Noto Sans CJK JP, Normal';font-variant-ligatures:normal;font-variant-caps:normal;font-variant-numeric:normal;font-feature-settings:normal;text-align:start;letter-spacing:0px;word-spacing:0px;writing-mode:lr-tb;text-anchor:start;fill:#000000;fill-opacity:1;stroke:none;stroke-width:0.26458332"
         xml:space="preserve"><tspan
           y="134.31252"
           x="168.30011"
           id="tspan2550"
           sodipodi:role="line">目的出力</tspan></text>
      <path
         d="m 126.51653,151.0328 a 27.593792,18.183834 0 0 1 22.12595,-7.60882 27.593792,18.183834 0 0 1 22.3902,7.26539"
         sodipodi:open="true"
         sodipodi:end="5.6392102"
         sodipodi:start="3.7621549"
         sodipodi:ry="18.183834"
         sodipodi:rx="27.593792"
         sodipodi:cy="161.60657"
         sodipodi:cx="148.9655"
         sodipodi:type="arc"
         id="path838-0"
         style="fill:none;fill-opacity:1;stroke:#000000;stroke-width:0.58815295;stroke-linecap:round;stroke-linejoin:round;stroke-miterlimit:4;stroke-dasharray:none;stroke-opacity:1;marker-end:url(#Arrow2Mend-0)" />
      <g
         style="fill:#000000;stroke:none"
         transform="matrix(0.00246944,0,0,-0.00246944,63.530912,159.13772)"
         id="g2997">
        <path
           inkscape:connector-curvature="0"
           d="M 560,1995 C 359,1950 148,1767 71,1572 c -37,-94 -25,-123 54,-124 56,-1 65,7 100,92 91,219 295,366 482,347 137,-14 176,-94 138,-279 C 793,1363 656,839 629,784 574,672 479,600 389,600 c -46,0 -135,25 -144,41 -3,4 11,17 32,28 74,38 132,127 133,204 1,157 -204,212 -328,87 C 34,912 17,873 12,795 2,644 93,540 273,494 c 144,-38 286,5 404,120 l 62,61 44,-47 c 111,-117 349,-176 541,-134 208,47 417,225 495,424 37,94 25,123 -54,124 -56,1 -65,-7 -100,-92 -73,-176 -212,-302 -374,-340 -65,-15 -151,-8 -194,17 -53,31 -69,74 -63,168 9,135 177,807 228,911 55,113 146,183 239,184 46,0 135,-25 144,-41 3,-4 -11,-17 -32,-28 -74,-38 -132,-127 -133,-204 -1,-158 203,-213 328,-87 48,48 65,87 70,165 10,151 -81,255 -261,301 -144,38 -286,-5 -404,-120 l -62,-61 -44,47 c -47,50 -129,96 -217,122 -78,24 -249,29 -330,11 z"
           id="path2991" />
        <path
           inkscape:connector-curvature="0"
           d="m 2714,1616 c -71,-31 -98,-120 -51,-164 58,-55 177,0 177,81 0,49 -8,65 -41,82 -34,18 -45,18 -85,1 z"
           id="path2993" />
        <path
           inkscape:connector-curvature="0"
           d="m 2403,1045 c -107,-53 -196,-166 -234,-293 -16,-54 -7,-62 72,-62 62,0 70,6 88,61 18,55 68,126 107,150 67,41 134,23 134,-37 0,-13 -50,-152 -110,-310 -61,-158 -113,-306 -117,-330 -10,-79 33,-156 111,-196 104,-54 254,-12 357,100 55,60 118,179 122,228 l 2,29 h -73 -73 l -23,-58 c -42,-101 -92,-153 -160,-164 -44,-7 -76,17 -76,57 0,15 50,157 112,316 91,237 112,299 112,344 2,117 -77,192 -208,198 -65,3 -77,1 -143,-33 z"
           id="path2995" />
      </g>
      <g
         style="fill:#000000;stroke:none"
         transform="matrix(0.00246944,0,0,-0.00246944,118.17363,160.53654)"
         id="g3075">
        <path
           inkscape:connector-curvature="0"
           d="m 1167,3133 c -2,-5 -46,-177 -98,-384 L 976,2373 874,2356 C 632,2317 434,2216 280,2053 105,1869 10,1643 10,1411 c 0,-177 43,-293 146,-397 41,-41 86,-74 135,-98 79,-38 210,-76 266,-76 18,0 33,-2 33,-5 0,-3 -34,-140 -75,-305 -41,-165 -75,-309 -75,-320 0,-20 5,-21 92,-18 l 92,3 79,315 c 43,173 84,318 90,322 7,4 25,8 40,8 41,0 173,29 242,52 128,44 263,123 362,212 117,106 237,302 283,466 30,104 37,282 16,373 -35,150 -128,270 -263,340 -71,37 -201,77 -252,77 -57,0 -58,-6 39,378 49,199 90,371 90,382 0,19 -6,20 -89,20 -50,0 -92,-3 -94,-7 z m 77,-979 c 81,-20 150,-59 201,-116 63,-70 80,-128 79,-268 -1,-133 -26,-226 -97,-365 -51,-99 -181,-234 -272,-282 -77,-41 -195,-80 -267,-88 l -56,-7 134,538 c 74,297 139,556 145,576 11,42 9,42 133,12 z m -324,4 c -1,-22 -278,-1119 -284,-1126 -10,-9 -124,13 -191,39 -43,16 -76,38 -117,79 -48,48 -60,68 -79,130 -56,186 18,467 172,651 51,61 142,130 225,169 110,53 274,87 274,58 z"
           id="path3067" />
        <path
           inkscape:connector-curvature="0"
           d="m 2350,1384 c -63,-12 -154,-49 -207,-83 -106,-69 -209,-210 -201,-277 4,-33 42,-49 94,-40 30,6 37,14 63,71 59,130 179,216 311,223 122,7 179,-41 166,-140 -8,-60 -109,-472 -137,-555 -43,-130 -163,-192 -275,-141 -31,15 -30,19 11,45 68,44 100,159 61,218 -20,30 -71,55 -114,55 -44,0 -114,-41 -144,-85 -55,-80 -46,-185 23,-260 107,-116 323,-125 464,-17 l 50,38 42,-32 c 64,-49 145,-75 249,-81 177,-11 320,37 438,147 94,88 149,203 114,238 -13,13 -96,16 -114,4 -6,-4 -24,-37 -41,-74 -59,-126 -183,-211 -312,-212 -111,-1 -161,36 -161,118 0,60 135,581 163,629 52,88 156,128 240,93 l 38,-15 -50,-48 c -58,-57 -79,-114 -61,-168 34,-104 174,-116 257,-22 99,112 55,271 -95,344 -49,23 -70,27 -147,28 -78,0 -98,-4 -148,-27 -32,-15 -76,-41 -97,-58 l -39,-31 -46,35 c -64,49 -159,77 -275,81 -52,2 -106,1 -120,-1 z"
           id="path3069" />
        <path
           inkscape:connector-curvature="0"
           d="m 4045,1136 c -35,-36 -42,-72 -18,-104 31,-42 76,-41 118,1 38,38 44,70 19,105 -22,32 -86,31 -119,-2 z"
           id="path3071" />
        <path
           inkscape:connector-curvature="0"
           d="m 3885,771 c -52,-14 -109,-48 -152,-93 -44,-45 -99,-150 -88,-168 3,-5 33,-10 65,-10 57,0 59,1 69,33 14,41 60,90 102,107 37,16 82,4 87,-23 2,-10 -35,-116 -83,-235 -92,-229 -96,-251 -59,-307 27,-41 90,-68 159,-68 70,0 131,24 191,76 43,38 104,141 104,176 0,19 -6,21 -60,21 -60,0 -60,0 -75,-37 -30,-72 -105,-124 -155,-108 -44,14 -41,32 47,250 74,184 84,216 80,258 -4,51 -30,87 -78,112 -33,18 -115,26 -154,16 z"
           id="path3073" />
      </g>
      <g
         style="fill:#000000;stroke:none"
         transform="matrix(0.00246944,0,0,-0.00246944,170.58243,160.75015)"
         id="g3162">
        <path
           inkscape:connector-curvature="0"
           d="m 2635,3218 c -158,-161 -256,-305 -346,-508 -142,-319 -202,-633 -202,-1050 0,-417 60,-731 202,-1050 90,-203 188,-347 346,-508 l 101,-103 85,3 c 116,4 116,13 -8,142 -265,274 -424,647 -489,1143 -24,176 -24,570 0,746 37,287 103,520 205,732 80,164 166,289 284,411 124,129 124,138 8,142 l -85,3 z"
           id="path3150" />
        <path
           inkscape:connector-curvature="0"
           d="m 6627,3313 c -17,-17 0,-43 91,-138 263,-273 423,-647 488,-1142 24,-176 24,-570 0,-746 C 7169,1000 7103,767 7001,555 6921,391 6835,266 6717,144 6593,15 6593,6 6709,2 l 85,-3 101,103 c 158,161 256,305 346,508 142,319 202,633 202,1050 0,417 -60,731 -202,1050 -90,203 -188,347 -346,508 l -100,102 h -81 c -44,0 -84,-3 -87,-7 z"
           id="path3152" />
        <path
           inkscape:connector-curvature="0"
           d="m 1202,3110 c -34,-16 -88,-53 -119,-82 -96,-90 -142,-216 -204,-555 L 857,2350 H 715 572 l -21,-85 c -11,-46 -21,-89 -21,-95 0,-6 52,-10 145,-10 80,0 145,-2 145,-4 0,-2 -45,-244 -100,-537 C 540,665 487,456 404,391 c -20,-16 -41,-21 -86,-21 -57,0 -59,1 -51,23 15,43 8,95 -17,122 C 166,604 0,509 0,371 0,329 39,264 79,237 c 86,-57 263,-77 346,-38 93,43 191,152 255,284 77,159 125,365 270,1137 50,267 93,497 96,513 l 6,27 h 168 169 l 10,38 c 5,20 16,63 24,95 l 15,57 h -175 -175 l 7,43 c 21,129 87,443 103,484 22,59 46,73 134,73 h 68 l -6,-44 c -4,-25 -4,-56 0,-71 8,-31 60,-65 101,-65 45,1 109,34 135,71 31,43 39,132 16,177 -39,75 -152,122 -294,122 -76,0 -95,-4 -150,-30 z"
           id="path3154" />
        <path
           inkscape:connector-curvature="0"
           d="m 3780,2315 c -201,-45 -412,-228 -489,-423 -37,-94 -25,-123 54,-124 56,-1 65,7 100,92 91,219 295,366 482,347 137,-14 176,-94 138,-279 -52,-245 -189,-769 -216,-824 -55,-112 -150,-184 -240,-184 -46,0 -135,25 -144,41 -3,4 11,17 32,28 74,38 132,127 133,204 1,157 -204,212 -328,87 -48,-48 -65,-87 -70,-165 -10,-151 81,-255 261,-301 144,-38 286,5 404,120 l 62,61 44,-47 c 111,-117 349,-176 541,-134 208,47 417,225 495,424 37,94 25,123 -54,124 -56,1 -65,-7 -100,-92 -73,-176 -212,-302 -374,-340 -65,-15 -151,-8 -194,17 -53,31 -69,74 -63,168 9,135 177,807 228,911 55,113 146,183 239,184 46,0 135,-25 144,-41 3,-4 -11,-17 -32,-28 -74,-38 -132,-127 -133,-204 -1,-158 203,-213 328,-87 48,48 65,87 70,165 10,151 -81,255 -261,301 -144,38 -286,-5 -404,-120 l -62,-61 -44,47 c -47,50 -129,96 -217,122 -78,24 -249,29 -330,11 z"
           id="path3156" />
        <path
           inkscape:connector-curvature="0"
           d="m 5944,1936 c -71,-31 -98,-120 -51,-164 58,-55 177,0 177,81 0,49 -8,65 -41,82 -34,18 -45,18 -85,1 z"
           id="path3158" />
        <path
           inkscape:connector-curvature="0"
           d="m 5633,1365 c -107,-53 -196,-166 -234,-293 -16,-54 -7,-62 72,-62 62,0 70,6 88,61 18,55 68,126 107,150 67,41 134,23 134,-37 0,-13 -50,-152 -110,-310 -61,-158 -113,-306 -117,-330 -10,-79 33,-156 111,-196 104,-54 254,-12 357,100 55,60 118,179 122,228 l 2,29 h -73 -73 l -23,-58 c -42,-101 -92,-153 -160,-164 -44,-7 -76,17 -76,57 0,15 50,157 112,316 91,237 112,299 112,344 2,117 -77,192 -208,198 -65,3 -77,1 -143,-33 z"
           id="path3160" />
      </g>
      <g
         transform="translate(-62.452678,-36.378668)"
         id="g4147">
        <path
           style="fill:#000000;stroke:none;stroke-width:0.00352778"
           inkscape:connector-curvature="0"
           d="m 131.14634,207.73186 -0.0705,0.28222 h 0.36689 c 0.22225,0 0.36689,0.0141 0.36689,0.0353 0,0.0212 -0.24695,1.02658 -0.55034,2.24014 l -0.55033,2.20133 -0.37747,0.0106 -0.37395,0.0106 -0.06,0.21166 c -0.10231,0.37042 -0.20461,0.33514 0.95603,0.33514 h 1.01953 l 0.0564,-0.2293 c 0.0882,-0.35631 0.10583,-0.33514 -0.29633,-0.33514 -0.2152,0 -0.35278,-0.0141 -0.35278,-0.0353 0,-0.0529 1.01953,-4.13103 1.05128,-4.20864 0.0141,-0.0388 0.17286,0.89605 0.39158,2.32833 0.19756,1.31587 0.37747,2.413 0.39864,2.43417 0.0494,0.0635 0.38453,0.0564 0.47272,-0.004 0.0388,-0.0282 0.77611,-1.13241 1.63689,-2.4518 0.86078,-1.32292 1.56986,-2.39537 1.57692,-2.38831 0.007,0.007 -0.22931,0.98072 -0.52564,2.16958 l -0.53975,2.15548 h -0.37394 -0.37748 l -0.0706,0.28222 -0.0706,0.28222 h 1.03717 1.03364 l 0.0388,-0.15169 c 0.0212,-0.0811 0.0459,-0.17639 0.0564,-0.21167 0.007,-0.0317 0.0247,-0.0917 0.0353,-0.13053 0.0176,-0.067 0.004,-0.0705 -0.35631,-0.0705 -0.34219,0 -0.37747,-0.007 -0.36336,-0.0635 0.0106,-0.0317 0.26106,-1.0407 0.56092,-2.24014 l 0.54327,-2.17664 h 0.37395 0.37747 l 0.0564,-0.22931 c 0.0917,-0.36689 0.15522,-0.33514 -0.67734,-0.33514 -0.5715,0 -0.74789,0.0106 -0.80433,0.0494 -0.0388,0.0282 -0.77611,1.13242 -1.63689,2.45534 -1.44639,2.21191 -1.57339,2.39536 -1.59809,2.30364 -0.0141,-0.0529 -0.18344,-1.13948 -0.37747,-2.40948 -0.28575,-1.88736 -0.35983,-2.31775 -0.40922,-2.35303 -0.0459,-0.0353 -0.25753,-0.0459 -0.79375,-0.0459 h -0.73025 z"
           id="path4126" />
        <path
           style="fill:#000000;stroke:none;stroke-width:0.00352778"
           inkscape:connector-curvature="0"
           d="m 121.06023,209.32246 c -0.10584,0.0423 -0.13406,0.16228 -0.067,0.26458 0.0318,0.0494 0.06,0.0882 0.067,0.0882 0.004,0.004 0.17286,0.0176 0.37394,0.0317 0.41275,0.0353 0.47978,0.0741 0.5327,0.30691 0.0423,0.17992 0.0423,6.3747 0,6.55462 -0.0529,0.23283 -0.11995,0.27164 -0.5327,0.30339 -0.31397,0.0247 -0.37394,0.0388 -0.42686,0.10583 -0.0776,0.0952 -0.0776,0.14111 -0.0141,0.23283 0.0494,0.0635 0.10936,0.067 1.96144,0.067 2.08139,0 1.97556,0.0106 1.97556,-0.19755 0,-0.14464 -0.0776,-0.17992 -0.45155,-0.20462 -0.18698,-0.0141 -0.37748,-0.0459 -0.41628,-0.067 -0.14464,-0.0776 -0.15522,-0.19756 -0.15522,-1.72156 v -1.4605 h 0.20813 0.20814 l 0.87489,1.34761 c 1.397,2.16253 1.46756,2.26836 1.50989,2.29306 0.0212,0.0141 0.508,0.0282 1.0795,0.0282 0.889,0 1.05481,-0.007 1.12184,-0.0564 0.14111,-0.0988 0.0811,-0.31045 -0.0988,-0.34925 -0.26106,-0.0565 -0.69497,-0.47273 -1.21356,-1.16417 -0.48683,-0.64559 -1.53105,-2.19428 -1.49578,-2.21898 0.007,-0.007 0.16934,-0.0494 0.36689,-0.0988 1.12184,-0.28928 1.64748,-0.90664 1.64748,-1.93323 0,-0.28927 -0.0176,-0.4198 -0.0776,-0.59972 -0.254,-0.74436 -0.92781,-1.24531 -2.00026,-1.48519 -0.33866,-0.0776 -0.41627,-0.0811 -2.62466,-0.0882 -1.30175,-0.007 -2.30717,0.004 -2.35303,0.0212 z m 2.50119,0.51858 c -0.0564,0.12347 -0.06,0.4057 -0.06,3.46781 0,2.50119 0.0106,3.36197 0.0423,3.45017 l 0.0423,0.11289 h -0.635 -0.63148 l 0.0247,-0.0988 c 0.0353,-0.12347 0.0353,-6.84037 0,-6.96737 l -0.0247,-0.0952 h 0.64912 0.65264 z m 1.76389,-0.0423 c 0.32103,0.11289 0.59267,0.43391 0.69498,0.81844 0.0811,0.29281 0.11288,0.889 0.0741,1.30528 -0.0423,0.47272 -0.13053,0.72672 -0.30339,0.90311 -0.254,0.254 -0.55739,0.33867 -1.32645,0.36689 l -0.55738,0.0212 v -1.54164 c 0,-1.62984 0.004,-1.68628 0.16933,-1.83092 0.0388,-0.0353 0.11642,-0.0776 0.16933,-0.0952 0.16228,-0.0529 0.889,-0.0176 1.0795,0.0529 z m 1.25236,0.18344 c 0.68439,0.27517 1.08303,0.75495 1.12889,1.36525 0.0494,0.62795 -0.1905,1.12889 -0.6738,1.41111 -0.14111,0.0811 -0.54328,0.22931 -0.77259,0.28223 l -0.0953,0.0212 0.10231,-0.18344 c 0.16933,-0.29986 0.21872,-0.55033 0.23989,-1.17475 0.0282,-0.80786 -0.0635,-1.30528 -0.31045,-1.69334 l -0.10583,-0.1658 0.13053,0.0247 c 0.0741,0.0106 0.23283,0.0635 0.3563,0.11289 z m -0.81138,3.78884 c 0.62441,1.00894 1.62983,2.413 2.04964,2.86103 l 0.2293,0.24341 -0.57855,-0.0106 -0.57503,-0.0106 -1.03364,-1.60161 c -0.5715,-0.87842 -1.02659,-1.60867 -1.016,-1.62278 0.0141,-0.0106 0.15875,-0.0282 0.32808,-0.0423 0.16933,-0.0106 0.3422,-0.0247 0.38453,-0.0247 0.0635,-0.007 0.10936,0.0423 0.21167,0.20814 z"
           id="path4059" />
      </g>
      <text
         id="text2480-0-3"
         y="178.13243"
         x="112.16756"
         style="font-style:normal;font-variant:normal;font-weight:normal;font-stretch:normal;font-size:5.64444447px;line-height:1.25;font-family:'Noto Sans CJK JP';-inkscape-font-specification:'Noto Sans CJK JP, Normal';font-variant-ligatures:normal;font-variant-caps:normal;font-variant-numeric:normal;font-feature-settings:normal;text-align:start;letter-spacing:0px;word-spacing:0px;writing-mode:lr-tb;text-anchor:start;fill:#000000;fill-opacity:1;stroke:none;stroke-width:0.26458332"
         xml:space="preserve"><tspan
           y="178.13243"
           x="112.16756"
           id="tspan4285"
           sodipodi:role="line">関数空間</tspan></text>
    </g>
  </g>
</svg>
